{
    "asset" : {
        "generator" : "Khronos glTF Blender I/O v1.6.16",
        "version" : "2.0"
    },
    "scene" : 0,
    "scenes" : [
        {
            "name" : "Scene",
            "nodes" : [
                0,
                1,
                2,
                3,
                4,
                5,
                6,
                7
            ]
        }
    ],
    "nodes" : [
        {
            "name" : "Light",
            "rotation" : [
                0.16907575726509094,
                0.7558803558349609,
                -0.27217137813568115,
                0.570947527885437
            ],
            "translation" : [
                4.076245307922363,
                5.903861999511719,
                -1.0054539442062378
            ]
        },
        {
            "name" : "Camera",
            "rotation" : [
                0.483536034822464,
                0.33687159419059753,
                -0.20870360732078552,
                0.7804827094078064
            ],
            "translation" : [
                7.358891487121582,
                4.958309173583984,
                6.925790786743164
            ]
        },
        {
            "name" : "Lamp.003",
            "rotation" : [
                0.1002199649810791,
                0.8751681447029114,
                -0.029592838138341904,
                0.47239917516708374
            ],
            "translation" : [
                15.150407791137695,
                28.54892349243164,
                -2.526188850402832
            ]
        },
        {
            "name" : "Camera.001",
            "rotation" : [
                0.23791268467903137,
                -0.7060489654541016,
                0.6035551428794861,
                0.28392526507377625
            ],
            "translation" : [
                -42.32969284057617,
                25.976564407348633,
                -46.099578857421875
            ]
        },
        {
            "mesh" : 0,
            "name" : "Circle",
            "scale" : [
                0.15967093408107758,
                0.15967093408107758,
                0.15967093408107758
            ],
            "translation" : [
                -0.002096831798553467,
                3.6787712574005127,
                0
            ]
        },
        {
            "mesh" : 1,
            "name" : "Cube.006",
            "scale" : [
                0.7450281381607056,
                0.7640283703804016,
                0.7450281381607056
            ],
            "translation" : [
                3.7054716813145205e-05,
                1.1956260204315186,
                0.0007588319131173193
            ]
        },
        {
            "mesh" : 2,
            "name" : "Sphere",
            "scale" : [
                12.732240676879883,
                12.732240676879883,
                12.732240676879883
            ]
        },
        {
            "name" : "Lamp",
            "rotation" : [
                -0.4012274742126465,
                0.7370452880859375,
                0.2609790861606598,
                0.47714847326278687
            ],
            "translation" : [
                -11.065052032470703,
                3.6297874450683594,
                0.005345016717910767
            ]
        }
    ],
    "materials" : [
        {
            "doubleSided" : true,
            "name" : "White",
            "pbrMetallicRoughness" : {
                "baseColorFactor" : [
                    0.800000011920929,
                    0.800000011920929,
                    0.800000011920929,
                    1
                ],
                "roughnessFactor" : 0.5527864098548889
            }
        },
        {
            "doubleSided" : true,
            "name" : "Black",
            "pbrMetallicRoughness" : {
                "baseColorFactor" : [
                    0.800000011920929,
                    0.800000011920929,
                    0.800000011920929,
                    1
                ],
                "roughnessFactor" : 0.5527864098548889
            }
        },
        {
            "doubleSided" : true,
            "name" : "Tan",
            "pbrMetallicRoughness" : {
                "baseColorFactor" : [
                    0.800000011920929,
                    0.800000011920929,
                    0.800000011920929,
                    1
                ],
                "roughnessFactor" : 0.5527864098548889
            }
        },
        {
            "doubleSided" : true,
            "name" : "JetBlack",
            "pbrMetallicRoughness" : {
                "baseColorFactor" : [
                    0.800000011920929,
                    0.800000011920929,
                    0.800000011920929,
                    1
                ],
                "roughnessFactor" : 0.5527864098548889
            }
        },
        {
            "doubleSided" : true,
            "name" : "Material.002",
            "pbrMetallicRoughness" : {
                "baseColorFactor" : [
                    0.800000011920929,
                    0.800000011920929,
                    0.800000011920929,
                    1
                ],
                "roughnessFactor" : 0.5527864098548889
            }
        },
        {
            "doubleSided" : true,
            "name" : "Yellow",
            "pbrMetallicRoughness" : {
                "baseColorFactor" : [
                    0.800000011920929,
                    0.800000011920929,
                    0.800000011920929,
                    1
                ],
                "roughnessFactor" : 0.5527864098548889
            }
        },
        {
            "doubleSided" : true,
            "name" : "Red",
            "pbrMetallicRoughness" : {
                "baseColorFactor" : [
                    0.800000011920929,
                    0.800000011920929,
                    0.800000011920929,
                    1
                ],
                "roughnessFactor" : 0.5527864098548889
            }
        },
        {
            "doubleSided" : true,
            "name" : "Orange",
            "pbrMetallicRoughness" : {
                "baseColorFactor" : [
                    0.800000011920929,
                    0.800000011920929,
                    0.800000011920929,
                    1
                ],
                "roughnessFactor" : 0.5527864098548889
            }
        }
    ],
    "meshes" : [
        {
            "name" : "Circle",
            "primitives" : [
                {
                    "attributes" : {
                        "POSITION" : 0,
                        "NORMAL" : 1
                    },
                    "indices" : 2,
                    "material" : 0
                },
                {
                    "attributes" : {
                        "POSITION" : 3,
                        "NORMAL" : 4
                    },
                    "indices" : 5,
                    "material" : 1
                },
                {
                    "attributes" : {
                        "POSITION" : 6,
                        "NORMAL" : 7
                    },
                    "indices" : 8,
                    "material" : 2
                },
                {
                    "attributes" : {
                        "POSITION" : 9,
                        "NORMAL" : 10
                    },
                    "indices" : 11,
                    "material" : 3
                }
            ]
        },
        {
            "name" : "Cube.007",
            "primitives" : [
                {
                    "attributes" : {
                        "POSITION" : 12,
                        "NORMAL" : 13
                    },
                    "indices" : 14,
                    "material" : 4
                }
            ]
        },
        {
            "name" : "Sphere.002",
            "primitives" : [
                {
                    "attributes" : {
                        "POSITION" : 15,
                        "NORMAL" : 16,
                        "TEXCOORD_0" : 17,
                        "TEXCOORD_1" : 18
                    },
                    "indices" : 19,
                    "material" : 1
                },
                {
                    "attributes" : {
                        "POSITION" : 20,
                        "NORMAL" : 21,
                        "TEXCOORD_0" : 22,
                        "TEXCOORD_1" : 23
                    },
                    "indices" : 24,
                    "material" : 5
                },
                {
                    "attributes" : {
                        "POSITION" : 25,
                        "NORMAL" : 26,
                        "TEXCOORD_0" : 27,
                        "TEXCOORD_1" : 28
                    },
                    "indices" : 29,
                    "material" : 6
                },
                {
                    "attributes" : {
                        "POSITION" : 30,
                        "NORMAL" : 31,
                        "TEXCOORD_0" : 32,
                        "TEXCOORD_1" : 33
                    },
                    "indices" : 34,
                    "material" : 7
                }
            ]
        }
    ],
    "accessors" : [
        {
            "bufferView" : 0,
            "componentType" : 5126,
            "count" : 3776,
            "max" : [
                4.726792812347412,
                4.427640914916992,
                4.538944721221924
            ],
            "min" : [
                -4.778312683105469,
                -1.0672645568847656,
                -4.538944721221924
            ],
            "type" : "VEC3"
        },
        {
            "bufferView" : 1,
            "componentType" : 5126,
            "count" : 3776,
            "type" : "VEC3"
        },
        {
            "bufferView" : 2,
            "componentType" : 5123,
            "count" : 6384,
            "type" : "SCALAR"
        },
        {
            "bufferView" : 3,
            "componentType" : 5126,
            "count" : 3328,
            "max" : [
                4.757961750030518,
                0.04442644119262695,
                4.913424015045166
            ],
            "min" : [
                -4.7316975593566895,
                -10.88254451751709,
                -4.913424015045166
            ],
            "type" : "VEC3"
        },
        {
            "bufferView" : 4,
            "componentType" : 5126,
            "count" : 3328,
            "type" : "VEC3"
        },
        {
            "bufferView" : 5,
            "componentType" : 5123,
            "count" : 6096,
            "type" : "SCALAR"
        },
        {
            "bufferView" : 6,
            "componentType" : 5126,
            "count" : 2066,
            "max" : [
                4.679386615753174,
                -10.757061004638672,
                4.670774936676025
            ],
            "min" : [
                -4.652657985687256,
                -20.336658477783203,
                -4.661269664764404
            ],
            "type" : "VEC3"
        },
        {
            "bufferView" : 7,
            "componentType" : 5126,
            "count" : 2066,
            "type" : "VEC3"
        },
        {
            "bufferView" : 8,
            "componentType" : 5123,
            "count" : 12096,
            "type" : "SCALAR"
        },
        {
            "bufferView" : 9,
            "componentType" : 5126,
            "count" : 3090,
            "max" : [
                4.813539028167725,
                -10.661556243896484,
                4.804927349090576
            ],
            "min" : [
                -4.786810398101807,
                -20.378585815429688,
                -4.795422077178955
            ],
            "type" : "VEC3"
        },
        {
            "bufferView" : 10,
            "componentType" : 5126,
            "count" : 3090,
            "type" : "VEC3"
        },
        {
            "bufferView" : 11,
            "componentType" : 5123,
            "count" : 15072,
            "type" : "SCALAR"
        },
        {
            "bufferView" : 12,
            "componentType" : 5126,
            "count" : 1318,
            "max" : [
                1.0019999742507935,
                1.0085113048553467,
                0.3333333134651184
            ],
            "min" : [
                -1,
                -1,
                -0.35027816891670227
            ],
            "type" : "VEC3"
        },
        {
            "bufferView" : 13,
            "componentType" : 5126,
            "count" : 1318,
            "type" : "VEC3"
        },
        {
            "bufferView" : 14,
            "componentType" : 5123,
            "count" : 3456,
            "type" : "SCALAR"
        },
        {
            "bufferView" : 15,
            "componentType" : 5126,
            "count" : 285,
            "max" : [
                0.6226124167442322,
                2.6381008625030518,
                0.6226556897163391
            ],
            "min" : [
                -0.6226088404655457,
                0.33612722158432007,
                -0.6225655674934387
            ],
            "type" : "VEC3"
        },
        {
            "bufferView" : 16,
            "componentType" : 5126,
            "count" : 285,
            "type" : "VEC3"
        },
        {
            "bufferView" : 17,
            "componentType" : 5126,
            "count" : 285,
            "type" : "VEC2"
        },
        {
            "bufferView" : 18,
            "componentType" : 5126,
            "count" : 285,
            "type" : "VEC2"
        },
        {
            "bufferView" : 19,
            "componentType" : 5123,
            "count" : 792,
            "type" : "SCALAR"
        },
        {
            "bufferView" : 20,
            "componentType" : 5126,
            "count" : 240,
            "max" : [
                0.880506157875061,
                2.4126555919647217,
                0.8805493116378784
            ],
            "min" : [
                -0.8805025815963745,
                1.411363959312439,
                -0.8804593682289124
            ],
            "type" : "VEC3"
        },
        {
            "bufferView" : 21,
            "componentType" : 5126,
            "count" : 240,
            "type" : "VEC3"
        },
        {
            "bufferView" : 22,
            "componentType" : 5126,
            "count" : 240,
            "type" : "VEC2"
        },
        {
            "bufferView" : 23,
            "componentType" : 5126,
            "count" : 240,
            "type" : "VEC2"
        },
        {
            "bufferView" : 24,
            "componentType" : 5123,
            "count" : 816,
            "type" : "SCALAR"
        },
        {
            "bufferView" : 25,
            "componentType" : 5126,
            "count" : 288,
            "max" : [
                0.7625409960746765,
                2.6118738651275635,
                0.7625840902328491
            ],
            "min" : [
                -0.76253741979599,
                0.6301831007003784,
                -0.7624942064285278
            ],
            "type" : "VEC3"
        },
        {
            "bufferView" : 26,
            "componentType" : 5126,
            "count" : 288,
            "type" : "VEC3"
        },
        {
            "bufferView" : 27,
            "componentType" : 5126,
            "count" : 288,
            "type" : "VEC2"
        },
        {
            "bufferView" : 28,
            "componentType" : 5126,
            "count" : 288,
            "type" : "VEC2"
        },
        {
            "bufferView" : 29,
            "componentType" : 5123,
            "count" : 720,
            "type" : "SCALAR"
        },
        {
            "bufferView" : 30,
            "componentType" : 5126,
            "count" : 312,
            "max" : [
                0.8505037426948547,
                2.534978151321411,
                0.8505469560623169
            ],
            "min" : [
                -0.8505001664161682,
                0.8276216983795166,
                -0.8504568934440613
            ],
            "type" : "VEC3"
        },
        {
            "bufferView" : 31,
            "componentType" : 5126,
            "count" : 312,
            "type" : "VEC3"
        },
        {
            "bufferView" : 32,
            "componentType" : 5126,
            "count" : 312,
            "type" : "VEC2"
        },
        {
            "bufferView" : 33,
            "componentType" : 5126,
            "count" : 312,
            "type" : "VEC2"
        },
        {
            "bufferView" : 34,
            "componentType" : 5123,
            "count" : 672,
            "type" : "SCALAR"
        }
    ],
    "bufferViews" : [
        {
            "buffer" : 0,
            "byteLength" : 45312,
            "byteOffset" : 0
        },
        {
            "buffer" : 0,
            "byteLength" : 45312,
            "byteOffset" : 45312
        },
        {
            "buffer" : 0,
            "byteLength" : 12768,
            "byteOffset" : 90624
        },
        {
            "buffer" : 0,
            "byteLength" : 39936,
            "byteOffset" : 103392
        },
        {
            "buffer" : 0,
            "byteLength" : 39936,
            "byteOffset" : 143328
        },
        {
            "buffer" : 0,
            "byteLength" : 12192,
            "byteOffset" : 183264
        },
        {
            "buffer" : 0,
            "byteLength" : 24792,
            "byteOffset" : 195456
        },
        {
            "buffer" : 0,
            "byteLength" : 24792,
            "byteOffset" : 220248
        },
        {
            "buffer" : 0,
            "byteLength" : 24192,
            "byteOffset" : 245040
        },
        {
            "buffer" : 0,
            "byteLength" : 37080,
            "byteOffset" : 269232
        },
        {
            "buffer" : 0,
            "byteLength" : 37080,
            "byteOffset" : 306312
        },
        {
            "buffer" : 0,
            "byteLength" : 30144,
            "byteOffset" : 343392
        },
        {
            "buffer" : 0,
            "byteLength" : 15816,
            "byteOffset" : 373536
        },
        {
            "buffer" : 0,
            "byteLength" : 15816,
            "byteOffset" : 389352
        },
        {
            "buffer" : 0,
            "byteLength" : 6912,
            "byteOffset" : 405168
        },
        {
            "buffer" : 0,
            "byteLength" : 3420,
            "byteOffset" : 412080
        },
        {
            "buffer" : 0,
            "byteLength" : 3420,
            "byteOffset" : 415500
        },
        {
            "buffer" : 0,
            "byteLength" : 2280,
            "byteOffset" : 418920
        },
        {
            "buffer" : 0,
            "byteLength" : 2280,
            "byteOffset" : 421200
        },
        {
            "buffer" : 0,
            "byteLength" : 1584,
            "byteOffset" : 423480
        },
        {
            "buffer" : 0,
            "byteLength" : 2880,
            "byteOffset" : 425064
        },
        {
            "buffer" : 0,
            "byteLength" : 2880,
            "byteOffset" : 427944
        },
        {
            "buffer" : 0,
            "byteLength" : 1920,
            "byteOffset" : 430824
        },
        {
            "buffer" : 0,
            "byteLength" : 1920,
            "byteOffset" : 432744
        },
        {
            "buffer" : 0,
            "byteLength" : 1632,
            "byteOffset" : 434664
        },
        {
            "buffer" : 0,
            "byteLength" : 3456,
            "byteOffset" : 436296
        },
        {
            "buffer" : 0,
            "byteLength" : 3456,
            "byteOffset" : 439752
        },
        {
            "buffer" : 0,
            "byteLength" : 2304,
            "byteOffset" : 443208
        },
        {
            "buffer" : 0,
            "byteLength" : 2304,
            "byteOffset" : 445512
        },
        {
            "buffer" : 0,
            "byteLength" : 1440,
            "byteOffset" : 447816
        },
        {
            "buffer" : 0,
            "byteLength" : 3744,
            "byteOffset" : 449256
        },
        {
            "buffer" : 0,
            "byteLength" : 3744,
            "byteOffset" : 453000
        },
        {
            "buffer" : 0,
            "byteLength" : 2496,
            "byteOffset" : 456744
        },
        {
            "buffer" : 0,
            "byteLength" : 2496,
            "byteOffset" : 459240
        },
        {
            "buffer" : 0,
            "byteLength" : 1344,
            "byteOffset" : 461736
        }
    ],
    "buffers" : [
        {
            "byteLength" : 463080,
            "uri" : "data:application/octet-stream;base64,"
        }
    ]
}
